<svg width="16" height="16" viewBox="0 0 16 16" fill="none" xmlns="http://www.w3.org/2000/svg">
<path d="M5.33331 1.33333V3.33333" stroke="white" stroke-width="1.5" stroke-miterlimit="10" stroke-linecap="round" stroke-linejoin="round"/>
<path d="M10.6667 1.33333V3.33333" stroke="white" stroke-width="1.5" stroke-miterlimit="10" stroke-linecap="round" stroke-linejoin="round"/>
<path d="M2.33331 6.06H13.6666" stroke="white" stroke-width="1.5" stroke-miterlimit="10" stroke-linecap="round" stroke-linejoin="round"/>
<path d="M12 15.3333C13.4727 15.3333 14.6666 14.1394 14.6666 12.6667C14.6666 11.1939 13.4727 10 12 10C10.5272 10 9.33331 11.1939 9.33331 12.6667C9.33331 14.1394 10.5272 15.3333 12 15.3333Z" stroke="white" stroke-miterlimit="10" stroke-linecap="round" stroke-linejoin="round"/>
<path d="M12.9933 12.7H11.0067" stroke="white" stroke-miterlimit="10" stroke-linecap="round" stroke-linejoin="round"/>
<path d="M12 11.7267V13.72" stroke="white" stroke-miterlimit="10" stroke-linecap="round" stroke-linejoin="round"/>
<path d="M14 5.66666V10.9067C13.5133 10.3533 12.8 9.99999 12 9.99999C10.5267 9.99999 9.33333 11.1933 9.33333 12.6667C9.33333 13.1667 9.47333 13.64 9.72 14.04C9.86 14.28 10.04 14.4933 10.2467 14.6667H5.33333C3 14.6667 2 13.3333 2 11.3333V5.66666C2 3.66666 3 2.33333 5.33333 2.33333H10.6667C13 2.33333 14 3.66666 14 5.66666Z" stroke="white" stroke-miterlimit="10" stroke-linecap="round" stroke-linejoin="round"/>
<path d="M7.99697 9.13334H8.00296" stroke="white" stroke-linecap="round" stroke-linejoin="round"/>
<path d="M5.52956 9.13334H5.53555" stroke="white" stroke-linecap="round" stroke-linejoin="round"/>
<path d="M5.52956 11.1333H5.53555" stroke="white" stroke-linecap="round" stroke-linejoin="round"/>
</svg>
